<?xml version="1.0" encoding="utf-8"?>
<!-- Generator: Adobe Illustrator 25.4.1, SVG Export Plug-In . SVG Version: 6.00 Build 0)  -->
<svg version="1.1" id="Layer_1" xmlns="http://www.w3.org/2000/svg" xmlns:xlink="http://www.w3.org/1999/xlink" x="0px" y="0px"
	 viewBox="0 0 185 55" style="enable-background:new 0 0 185 55;" xml:space="preserve">
<style type="text/css">
	.st0{fill:url(#SVGID_1_);}
	.st1{fill:url(#SVGID_00000111150622177950570760000008866172161245624474_);}
	.st2{fill:url(#SVGID_00000105398207274470122680000001701090106691067267_);}
	.st3{fill:url(#SVGID_00000065763376291292675810000005875675751934285223_);}
	.st4{fill:url(#SVGID_00000043426841640877635000000000144774848191883187_);}
	.st5{fill:url(#SVGID_00000146482137708631191140000017097848917945272466_);}
	.st6{fill:url(#SVGID_00000115509895603063531440000015638090818774467993_);}
	.st7{fill:url(#SVGID_00000084527179798446183950000012983718303155264691_);}
	.st8{fill:url(#SVGID_00000098924924494217691810000003694381257649156491_);}
	.st9{fill:url(#SVGID_00000179631875928094381120000012027999966005140666_);}
	.st10{fill:url(#SVGID_00000027600115554189742330000005996105564453040788_);}
	.st11{fill:url(#SVGID_00000158719205744001315220000006817578670548180610_);}
	.st12{fill:url(#SVGID_00000025418719942289395700000013233787333952449708_);}
	.st13{fill:url(#SVGID_00000134934669671873505940000016264854244815750029_);}
	.st14{fill:url(#SVGID_00000078045204463497468790000003011307264826476949_);}
	.st15{fill:url(#SVGID_00000147932664796520981480000011154555554886310837_);}
	.st16{fill:url(#SVGID_00000019664954891230497150000005836330909258927536_);}
	.st17{fill:url(#SVGID_00000047751510145902220970000001633031387006328203_);}
	.st18{fill:url(#SVGID_00000135686264050413608280000007476467888796370613_);}
	.st19{fill:url(#SVGID_00000005952028471194751080000003305627323612312476_);}
	.st20{fill:url(#SVGID_00000129176011079126627660000012412753298474252734_);}
	.st21{fill:url(#SVGID_00000065762012943870399530000010529648855634298552_);}
	.st22{fill:url(#SVGID_00000051356990562770109930000000896332529492249778_);}
</style>
<g>
	<g>
		<g>
			<linearGradient id="SVGID_1_" gradientUnits="userSpaceOnUse" x1="37.4394" y1="33.09" x2="37.4394" y2="41.0246">
				<stop  offset="0" style="stop-color:#666666"/>
				<stop  offset="1" style="stop-color:#000000"/>
			</linearGradient>
			<path class="st0" d="M37.43,39.76h0.03c0.36,0,0.65-0.29,0.65-0.65v-5.3c0-0.36-0.29-0.65-0.65-0.65h-0.03
				c-0.36,0-0.65,0.29-0.65,0.65v5.3C36.78,39.47,37.07,39.76,37.43,39.76z"/>
			
				<linearGradient id="SVGID_00000016067018671805396030000013078742197964450234_" gradientUnits="userSpaceOnUse" x1="45.274" y1="33.09" x2="45.274" y2="41.0246">
				<stop  offset="0" style="stop-color:#666666"/>
				<stop  offset="1" style="stop-color:#000000"/>
			</linearGradient>
			<path style="fill:url(#SVGID_00000016067018671805396030000013078742197964450234_);" d="M41.67,33.81v0.03
				c0,0.36,0.29,0.65,0.65,0.65h2.3v4.63c0,0.36,0.29,0.65,0.65,0.65h0.03c0.36,0,0.65-0.29,0.65-0.65v-4.63h2.3
				c0.36,0,0.65-0.29,0.65-0.65v-0.03c0-0.36-0.29-0.65-0.65-0.65h-5.92C41.96,33.16,41.67,33.45,41.67,33.81z"/>
			
				<linearGradient id="SVGID_00000149367905586681246020000003605859826178718368_" gradientUnits="userSpaceOnUse" x1="52.5191" y1="33.09" x2="52.5191" y2="41.0246">
				<stop  offset="0" style="stop-color:#666666"/>
				<stop  offset="1" style="stop-color:#000000"/>
			</linearGradient>
			<path style="fill:url(#SVGID_00000149367905586681246020000003605859826178718368_);" d="M52.51,35.48h0.03
				c0.36,0,0.65-0.29,0.65-0.65v-0.8c0-0.36-0.29-0.65-0.65-0.65h-0.03c-0.36,0-0.65,0.29-0.65,0.65v0.8
				C51.86,35.19,52.15,35.48,52.51,35.48z"/>
			
				<linearGradient id="SVGID_00000147902780369605705750000008219809219578468796_" gradientUnits="userSpaceOnUse" x1="60.653" y1="33.09" x2="60.653" y2="41.0246">
				<stop  offset="0" style="stop-color:#666666"/>
				<stop  offset="1" style="stop-color:#000000"/>
			</linearGradient>
			<path style="fill:url(#SVGID_00000147902780369605705750000008219809219578468796_);" d="M59.09,34.48h4.45
				c0.36,0,0.65-0.29,0.65-0.65v-0.03c0-0.36-0.29-0.65-0.65-0.65h-4.45c-0.27,0-0.53,0.05-0.77,0.16c-0.24,0.1-0.45,0.25-0.63,0.42
				c-0.18,0.18-0.32,0.39-0.42,0.63c-0.1,0.24-0.16,0.5-0.16,0.77c0,0.27,0.05,0.53,0.16,0.77c0.1,0.24,0.25,0.45,0.42,0.63
				c0.18,0.18,0.39,0.32,0.63,0.42c0.24,0.1,0.5,0.16,0.77,0.16h3.12c0.18,0,0.34,0.06,0.47,0.19c0.13,0.13,0.19,0.28,0.19,0.47
				c0,0.18-0.06,0.34-0.19,0.47s-0.28,0.19-0.47,0.19h-4.45c-0.36,0-0.65,0.29-0.65,0.65v0.03c0,0.36,0.29,0.65,0.65,0.65h4.45
				c0.27,0,0.53-0.05,0.77-0.16c0.24-0.1,0.45-0.25,0.63-0.43c0.18-0.18,0.32-0.39,0.42-0.63c0.1-0.24,0.16-0.5,0.16-0.77
				c0-0.27-0.05-0.53-0.16-0.77c-0.1-0.24-0.25-0.45-0.43-0.63s-0.39-0.32-0.63-0.43c-0.24-0.1-0.49-0.16-0.77-0.16h-3.12
				c-0.18,0-0.34-0.06-0.47-0.19c-0.13-0.13-0.19-0.28-0.19-0.47s0.06-0.34,0.19-0.47C58.75,34.55,58.91,34.48,59.09,34.48z"/>
			<g>
				
					<linearGradient id="SVGID_00000098901078993710884250000007079834281600426376_" gradientUnits="userSpaceOnUse" x1="92.0056" y1="33.09" x2="92.0056" y2="41.0246">
					<stop  offset="0" style="stop-color:#666666"/>
					<stop  offset="1" style="stop-color:#000000"/>
				</linearGradient>
				<path style="fill:url(#SVGID_00000098901078993710884250000007079834281600426376_);" d="M95.7,36.14
					c0.18-0.3,0.27-0.62,0.27-0.98c0-0.27-0.05-0.53-0.15-0.78c-0.1-0.24-0.24-0.46-0.42-0.64c-0.18-0.18-0.39-0.32-0.63-0.43
					c-0.24-0.1-0.5-0.16-0.77-0.16h-5.29c-0.36,0-0.65,0.29-0.65,0.65v0.03c0,0.36,0.29,0.65,0.65,0.65h5.29
					c0.18,0,0.34,0.07,0.47,0.19c0.13,0.13,0.19,0.29,0.19,0.47s-0.06,0.34-0.19,0.47s-0.28,0.19-0.47,0.19h-4.62h-0.71
					c-0.33,0-0.61,0.27-0.61,0.61v0.72v0.86c0,0.98,0.79,1.77,1.77,1.77h4.17c0.27,0,0.53-0.05,0.77-0.16
					c0.24-0.1,0.45-0.25,0.63-0.43c0.18-0.18,0.32-0.39,0.42-0.63c0.1-0.24,0.15-0.5,0.15-0.77c0-0.36-0.09-0.69-0.27-0.99
					C95.58,36.58,95.58,36.34,95.7,36.14z M94.45,38.24c-0.13,0.13-0.28,0.19-0.47,0.19h-4.04c-0.32,0-0.58-0.26-0.58-0.58v-0.73
					h4.62c0.18,0,0.34,0.06,0.47,0.19c0.13,0.13,0.19,0.28,0.19,0.46C94.64,37.96,94.58,38.12,94.45,38.24z"/>
			</g>
			<g>
				
					<linearGradient id="SVGID_00000027588118759548039940000006579624184661144968_" gradientUnits="userSpaceOnUse" x1="80.7853" y1="33.09" x2="80.7853" y2="41.0246">
					<stop  offset="0" style="stop-color:#666666"/>
					<stop  offset="1" style="stop-color:#000000"/>
				</linearGradient>
				<path style="fill:url(#SVGID_00000027588118759548039940000006579624184661144968_);" d="M76.8,39.66L76.8,39.66
					c-0.32-0.2-0.42-0.61-0.22-0.93l3.05-4.92c0.53-0.85,1.77-0.86,2.3,0l3.06,4.93c0.2,0.32,0.1,0.73-0.22,0.93l0,0
					c-0.32,0.2-0.73,0.1-0.93-0.22l-2.82-4.54c-0.11-0.18-0.37-0.18-0.48,0l-2.81,4.54C77.53,39.76,77.12,39.85,76.8,39.66z"/>
			</g>
			
				<linearGradient id="SVGID_00000173130792114694653370000000358742739817608836_" gradientUnits="userSpaceOnUse" x1="104.1376" y1="33.09" x2="104.1376" y2="41.0246">
				<stop  offset="0" style="stop-color:#666666"/>
				<stop  offset="1" style="stop-color:#000000"/>
			</linearGradient>
			<path style="fill:url(#SVGID_00000173130792114694653370000000358742739817608836_);" d="M107.32,33.74
				c-0.18-0.18-0.39-0.32-0.63-0.42c-0.24-0.1-0.5-0.16-0.77-0.16h-3.57c-0.27,0-0.53,0.05-0.77,0.16c-0.24,0.1-0.45,0.25-0.63,0.42
				c-0.18,0.18-0.32,0.39-0.42,0.63c-0.1,0.24-0.16,0.5-0.16,0.77v2.64c0,0.27,0.05,0.53,0.16,0.77c0.1,0.24,0.25,0.45,0.42,0.63
				c0.18,0.18,0.39,0.32,0.63,0.42c0.24,0.1,0.5,0.16,0.77,0.16h3.57c0.27,0,0.53-0.05,0.77-0.16s0.45-0.25,0.63-0.42
				c0.18-0.18,0.32-0.39,0.42-0.63c0.1-0.24,0.16-0.5,0.16-0.77v-2.64c0-0.27-0.05-0.53-0.16-0.77
				C107.64,34.13,107.5,33.92,107.32,33.74z M106.58,37.78c0,0.18-0.06,0.34-0.19,0.47c-0.13,0.13-0.28,0.19-0.47,0.19h-3.57
				c-0.18,0-0.34-0.06-0.47-0.19c-0.13-0.13-0.19-0.28-0.19-0.47v-2.64c0-0.18,0.06-0.34,0.19-0.47s0.28-0.19,0.47-0.19h3.57
				c0.18,0,0.34,0.06,0.47,0.19c0.13,0.13,0.19,0.28,0.19,0.47V37.78z"/>
			
				<linearGradient id="SVGID_00000056395952829763849620000007699637196222568858_" gradientUnits="userSpaceOnUse" x1="115.9416" y1="33.09" x2="115.9416" y2="41.0246">
				<stop  offset="0" style="stop-color:#666666"/>
				<stop  offset="1" style="stop-color:#000000"/>
			</linearGradient>
			<path style="fill:url(#SVGID_00000056395952829763849620000007699637196222568858_);" d="M118.25,37.77
				c0,0.18-0.06,0.34-0.19,0.47c-0.13,0.13-0.29,0.19-0.47,0.19h-3.3c-0.18,0-0.34-0.06-0.47-0.19c-0.13-0.13-0.19-0.29-0.19-0.47
				v-2.63v-1.34c0-0.36-0.29-0.65-0.65-0.65h-0.03c-0.36,0-0.65,0.29-0.65,0.65v3.97c0,0.27,0.05,0.53,0.16,0.77
				c0.1,0.24,0.25,0.45,0.42,0.63c0.18,0.18,0.39,0.32,0.63,0.42c0.24,0.1,0.5,0.16,0.77,0.16h3.3c0.27,0,0.53-0.05,0.77-0.16
				c0.24-0.1,0.45-0.25,0.63-0.42c0.18-0.18,0.32-0.39,0.42-0.63c0.1-0.24,0.16-0.5,0.16-0.77v-3.97c0-0.36-0.29-0.65-0.65-0.65
				h-0.03c-0.36,0-0.65,0.29-0.65,0.65V37.77z"/>
			
				<linearGradient id="SVGID_00000083794394329558513580000004695062375266449591_" gradientUnits="userSpaceOnUse" x1="126.5525" y1="33.09" x2="126.5525" y2="41.0246">
				<stop  offset="0" style="stop-color:#666666"/>
				<stop  offset="1" style="stop-color:#000000"/>
			</linearGradient>
			<path style="fill:url(#SVGID_00000083794394329558513580000004695062375266449591_);" d="M123.58,33.81v0.03
				c0,0.36,0.29,0.65,0.65,0.65h1.11c0.36,0,0.65,0.29,0.65,0.65v3.98c0,0.36,0.29,0.65,0.65,0.65h0.03c0.36,0,0.65-0.29,0.65-0.65
				v-3.98c0-0.36,0.29-0.65,0.65-0.65h0.93c0.36,0,0.65-0.29,0.65-0.65v-0.03c0-0.36-0.29-0.65-0.65-0.65h-4.66
				C123.87,33.16,123.58,33.45,123.58,33.81z"/>
			
				<linearGradient id="SVGID_00000091715383432256266190000011546059805057920140_" gradientUnits="userSpaceOnUse" x1="144.5892" y1="33.09" x2="144.5892" y2="41.0246">
				<stop  offset="0" style="stop-color:#666666"/>
				<stop  offset="1" style="stop-color:#000000"/>
			</linearGradient>
			<path style="fill:url(#SVGID_00000091715383432256266190000011546059805057920140_);" d="M147.55,33.16
				c-0.36,0-0.65,0.29-0.65,0.65v3.96c0,0.18-0.06,0.34-0.19,0.47c-0.13,0.13-0.29,0.19-0.47,0.19h-3.3c-0.18,0-0.34-0.06-0.47-0.19
				c-0.13-0.13-0.19-0.29-0.19-0.47v-2.63v-1.34c0-0.36-0.29-0.65-0.65-0.65h-0.03c-0.36,0-0.65,0.29-0.65,0.65v3.97
				c0,0.27,0.05,0.53,0.16,0.77c0.1,0.24,0.25,0.45,0.42,0.63c0.18,0.18,0.39,0.32,0.63,0.42c0.24,0.1,0.5,0.16,0.77,0.16h3.3
				c0.27,0,0.53-0.05,0.77-0.16c0.24-0.1,0.45-0.25,0.63-0.42c0.18-0.18,0.32-0.39,0.42-0.63c0.1-0.24,0.16-0.5,0.16-0.77v-3.97
				c0-0.36-0.29-0.65-0.65-0.65H147.55z"/>
		</g>
		<g>
			
				<linearGradient id="SVGID_00000016075543849353902380000005160295702097721746_" gradientUnits="userSpaceOnUse" x1="14.2642" y1="14.771" x2="14.2642" y2="30.7659">
				<stop  offset="0" style="stop-color:#0073FF"/>
				<stop  offset="1" style="stop-color:#2E3192"/>
			</linearGradient>
			<path style="fill:url(#SVGID_00000016075543849353902380000005160295702097721746_);" d="M8.87,29.57H8.64
				c-1.21,0-1.88-1.41-1.11-2.35l3.23-3.9c0.44-0.53,0.44-1.3,0-1.83l-3.23-3.9c-0.77-0.94-0.11-2.35,1.11-2.35h0.22
				c0.43,0,0.83,0.19,1.11,0.52l3.18,3.86c0.57,0.7,1.64,0.7,2.21,0l3.18-3.86c0.27-0.33,0.68-0.52,1.11-0.52h0.22
				c1.21,0,1.88,1.41,1.11,2.35l-3.23,3.9c-0.44,0.53-0.44,1.3,0,1.83l3.23,3.9c0.77,0.94,0.11,2.35-1.11,2.35h-0.22
				c-0.43,0-0.84-0.19-1.11-0.52l-3.18-3.87c-0.57-0.7-1.64-0.7-2.22,0l-3.18,3.87C9.7,29.38,9.3,29.57,8.87,29.57z"/>
			
				<linearGradient id="SVGID_00000030472616674755698860000013080542962000898188_" gradientUnits="userSpaceOnUse" x1="32.0398" y1="14.771" x2="32.0398" y2="30.7659">
				<stop  offset="0" style="stop-color:#0073FF"/>
				<stop  offset="1" style="stop-color:#2E3192"/>
			</linearGradient>
			<path style="fill:url(#SVGID_00000030472616674755698860000013080542962000898188_);" d="M35.34,15.24
				c0.59,0,1.15,0.11,1.67,0.34c0.52,0.23,0.98,0.53,1.36,0.92c0.39,0.39,0.69,0.84,0.92,1.36c0.23,0.52,0.34,1.08,0.34,1.67
				s-0.11,1.15-0.34,1.67c-0.23,0.52-0.53,0.98-0.92,1.36c-0.39,0.39-0.84,0.69-1.36,0.92c-0.52,0.23-1.08,0.34-1.67,0.34h-6.61
				c-0.4,0-0.74,0.14-1.01,0.42c-0.28,0.28-0.41,0.62-0.41,1.02v2.86c0,0.79-0.64,1.43-1.43,1.43h0c-0.79,0-1.43-0.64-1.43-1.43
				v-2.87c0-0.59,0.11-1.15,0.34-1.68c0.23-0.52,0.53-0.98,0.92-1.37c0.38-0.39,0.84-0.69,1.36-0.92c0.52-0.23,1.08-0.34,1.67-0.34
				h6.61c0.4,0,0.74-0.14,1.01-0.42c0.27-0.28,0.41-0.62,0.41-1.02c0-0.4-0.14-0.73-0.41-1c-0.28-0.27-0.61-0.41-1.01-0.41h-9.47
				c-0.79,0-1.43-0.64-1.43-1.43v0c0-0.79,0.64-1.43,1.43-1.43H35.34z"/>
			
				<linearGradient id="SVGID_00000152972118910476820290000005909796606206315710_" gradientUnits="userSpaceOnUse" x1="49.0567" y1="14.771" x2="49.0567" y2="30.7659">
				<stop  offset="0" style="stop-color:#0073FF"/>
				<stop  offset="1" style="stop-color:#2E3192"/>
			</linearGradient>
			<path style="fill:url(#SVGID_00000152972118910476820290000005909796606206315710_);" d="M56.99,16.68L56.99,16.68
				c0,0.79-0.64,1.44-1.43,1.44H42.56c-0.79,0-1.44-0.64-1.44-1.43v0c0-0.79,0.64-1.43,1.44-1.43h12.99
				C56.34,15.24,56.99,15.88,56.99,16.68z M41.17,20.98c0,0.03,0,0.06,0,0.08c-0.02,0-0.03,0-0.05,0v4.86
				c0,2.02,1.64,3.65,3.65,3.65h10.77c0.79,0,1.43-0.64,1.43-1.43v0c0-0.79-0.64-1.43-1.43-1.43H45.43c-0.79,0-1.44-0.64-1.44-1.43
				v-1.42h11.56c0.79,0,1.43-0.64,1.43-1.43v0c0-0.79-0.64-1.43-1.43-1.43H41.17z"/>
			
				<linearGradient id="SVGID_00000061444604342319966430000015583529485862851464_" gradientUnits="userSpaceOnUse" x1="66.6198" y1="14.771" x2="66.6198" y2="30.7659">
				<stop  offset="0" style="stop-color:#0073FF"/>
				<stop  offset="1" style="stop-color:#2E3192"/>
			</linearGradient>
			<path style="fill:url(#SVGID_00000061444604342319966430000015583529485862851464_);" d="M74.35,19.54
				c0,0.59-0.11,1.15-0.34,1.67s-0.53,0.98-0.92,1.37c-0.39,0.39-0.84,0.7-1.36,0.93c-0.52,0.23-1.08,0.34-1.67,0.34l2.57,3.42
				c0.71,0.95,0.04,2.3-1.15,2.3h0c-0.45,0-0.88-0.21-1.15-0.57l-3.44-4.57c-0.27-0.36-0.7-0.57-1.15-0.57h-2.57
				c-0.4,0-0.74,0.14-1.01,0.41s-0.41,0.61-0.41,1.01v2.86c0,0.79-0.64,1.43-1.43,1.43h0c-0.79,0-1.43-0.64-1.43-1.43v-2.86
				c0-0.59,0.11-1.15,0.34-1.67c0.23-0.52,0.53-0.98,0.92-1.36c0.38-0.38,0.84-0.69,1.36-0.92c0.52-0.23,1.08-0.34,1.67-0.34h6.88
				c0.4,0,0.74-0.14,1.01-0.42c0.28-0.28,0.41-0.62,0.41-1.02s-0.14-0.74-0.41-1.01c-0.28-0.28-0.61-0.41-1.01-0.41H61.2
				c-0.54,0-1.04-0.31-1.29-0.8l0,0c-0.47-0.95,0.22-2.07,1.29-2.07h8.86c0.59,0,1.15,0.11,1.67,0.34c0.52,0.23,0.98,0.53,1.36,0.92
				c0.39,0.39,0.69,0.84,0.92,1.36C74.24,18.39,74.35,18.94,74.35,19.54z"/>
			
				<linearGradient id="SVGID_00000014620845737426429390000002153738558406695569_" gradientUnits="userSpaceOnUse" x1="78.1009" y1="14.771" x2="78.1009" y2="30.7659">
				<stop  offset="0" style="stop-color:#0073FF"/>
				<stop  offset="1" style="stop-color:#2E3192"/>
			</linearGradient>
			<path style="fill:url(#SVGID_00000014620845737426429390000002153738558406695569_);" d="M79.54,16.68v11.46
				c0,0.79-0.64,1.43-1.43,1.43h0c-0.79,0-1.43-0.64-1.43-1.43V16.68c0-0.79,0.64-1.43,1.43-1.43h0
				C78.89,15.24,79.54,15.88,79.54,16.68z"/>
			<g>
				
					<linearGradient id="SVGID_00000179605142496339570760000015218989751021112243_" gradientUnits="userSpaceOnUse" x1="108.3352" y1="14.771" x2="108.3352" y2="30.7659">
					<stop  offset="0" style="stop-color:#0073FF"/>
					<stop  offset="1" style="stop-color:#2E3192"/>
				</linearGradient>
				<path style="fill:url(#SVGID_00000179605142496339570760000015218989751021112243_);" d="M113.34,16.7v8.75l-9.01-9.16
					c-0.64-0.65-1.52-1.02-2.44-1.02l0,0c-0.79,0-1.43,0.64-1.43,1.43v11.44c0,0.79,0.64,1.43,1.43,1.43l0,0
					c0.79,0,1.43-0.64,1.43-1.43v-8.79l9.01,9.2c0.64,0.66,1.52,1.03,2.44,1.03h0c0.79,0,1.43-0.64,1.43-1.43V16.7
					c0-0.79-0.64-1.43-1.43-1.43h0C113.98,15.26,113.34,15.9,113.34,16.7z"/>
			</g>
			
				<linearGradient id="SVGID_00000018944609229637985270000004395004352363002261_" gradientUnits="userSpaceOnUse" x1="90.3991" y1="14.771" x2="90.3991" y2="30.7659">
				<stop  offset="0" style="stop-color:#0073FF"/>
				<stop  offset="1" style="stop-color:#2E3192"/>
			</linearGradient>
			<path style="fill:url(#SVGID_00000018944609229637985270000004395004352363002261_);" d="M98.33,16.68L98.33,16.68
				c0,0.79-0.64,1.44-1.43,1.44H83.9c-0.79,0-1.43-0.64-1.43-1.43v0c0-0.79,0.64-1.43,1.43-1.43h12.99
				C97.69,15.24,98.33,15.88,98.33,16.68z M82.51,20.98c0,0.03,0,0.06,0,0.08c-0.02,0-0.03,0-0.05,0v4.86
				c0,2.02,1.64,3.65,3.65,3.65h10.77c0.79,0,1.43-0.64,1.43-1.43v0c0-0.79-0.64-1.43-1.43-1.43H86.77c-0.79,0-1.44-0.64-1.44-1.43
				v-1.42h11.56c0.79,0,1.43-0.64,1.43-1.43v0c0-0.79-0.64-1.43-1.43-1.43H82.51z"/>
			
				<linearGradient id="SVGID_00000100374184346111866930000009082496524825473960_" gradientUnits="userSpaceOnUse" x1="126.8898" y1="14.771" x2="126.8898" y2="30.7659">
				<stop  offset="0" style="stop-color:#0073FF"/>
				<stop  offset="1" style="stop-color:#2E3192"/>
			</linearGradient>
			<path style="fill:url(#SVGID_00000100374184346111866930000009082496524825473960_);" d="M134.41,28.14
				c0,0.79-0.64,1.43-1.43,1.43h-9.3c-0.59,0-1.15-0.11-1.67-0.34s-0.98-0.53-1.36-0.92c-0.39-0.38-0.69-0.84-0.92-1.36
				c-0.23-0.52-0.34-1.08-0.34-1.67v-5.72c0-0.59,0.11-1.15,0.34-1.67s0.53-0.98,0.92-1.37c0.38-0.39,0.84-0.7,1.36-0.93
				c0.52-0.23,1.08-0.34,1.67-0.34h9.3c0.79,0,1.43,0.64,1.43,1.43v0c0,0.79-0.64,1.43-1.43,1.43h-9.3c-0.4,0-0.74,0.14-1.01,0.42
				c-0.28,0.28-0.41,0.62-0.41,1.02v5.71c0,0.4,0.14,0.74,0.41,1.02c0.28,0.28,0.61,0.42,1.01,0.42h5.02h4.29
				C133.76,26.7,134.41,27.35,134.41,28.14L134.41,28.14z"/>
			
				<linearGradient id="SVGID_00000145753511873291110670000011250350237398031791_" gradientUnits="userSpaceOnUse" x1="144.4426" y1="14.771" x2="144.4426" y2="30.7659">
				<stop  offset="0" style="stop-color:#0073FF"/>
				<stop  offset="1" style="stop-color:#2E3192"/>
			</linearGradient>
			<path style="fill:url(#SVGID_00000145753511873291110670000011250350237398031791_);" d="M152.37,16.68L152.37,16.68
				c0,0.79-0.64,1.44-1.43,1.44h-12.99c-0.79,0-1.43-0.64-1.43-1.43v0c0-0.79,0.64-1.43,1.43-1.43h12.99
				C151.73,15.24,152.37,15.88,152.37,16.68z M136.56,20.98c0,0.03,0,0.06,0,0.08c-0.02,0-0.03,0-0.05,0v4.86
				c0,2.02,1.64,3.65,3.65,3.65h10.77c0.79,0,1.43-0.64,1.43-1.43v0c0-0.79-0.64-1.43-1.43-1.43h-10.12c-0.79,0-1.43-0.64-1.43-1.43
				v-1.42h11.56c0.79,0,1.43-0.64,1.43-1.43v0c0-0.79-0.64-1.43-1.43-1.43H136.56z"/>
			
				<linearGradient id="SVGID_00000064311681843221509930000000117027430543064741_" gradientUnits="userSpaceOnUse" x1="156.9783" y1="14.771" x2="156.9783" y2="30.7659">
				<stop  offset="0" style="stop-color:#0073FF"/>
				<stop  offset="1" style="stop-color:#2E3192"/>
			</linearGradient>
			<path style="fill:url(#SVGID_00000064311681843221509930000000117027430543064741_);" d="M155.17,21.52h3.61
				c0.79,0,1.43,0.64,1.43,1.43v0c0,0.79-0.64,1.43-1.43,1.43h-3.61c-0.79,0-1.43-0.64-1.43-1.43v0
				C153.74,22.16,154.38,21.52,155.17,21.52z"/>
			<g>
				
					<linearGradient id="SVGID_00000062912931331519588180000002509184246249804211_" gradientUnits="userSpaceOnUse" x1="169.9053" y1="14.771" x2="169.9053" y2="30.7659">
					<stop  offset="0" style="stop-color:#0073FF"/>
					<stop  offset="1" style="stop-color:#2E3192"/>
				</linearGradient>
				<path style="fill:url(#SVGID_00000062912931331519588180000002509184246249804211_);" d="M176.36,15.24
					c-0.79,0-1.43,0.64-1.43,1.43v8.58c0,0.4-0.14,0.74-0.42,1.02c-0.28,0.28-0.62,0.42-1.02,0.42h-7.17c-0.4,0-0.74-0.14-1.01-0.42
					c-0.28-0.28-0.41-0.62-0.41-1.02v-5.71v-2.87c0-0.79-0.64-1.43-1.43-1.43l0,0c-0.79,0-1.43,0.64-1.43,1.43v8.6
					c0,0.59,0.11,1.15,0.34,1.67c0.23,0.52,0.53,0.98,0.92,1.36c0.39,0.39,0.84,0.69,1.36,0.92s1.08,0.34,1.68,0.34h7.18
					c0.59,0,1.15-0.11,1.67-0.34c0.52-0.23,0.98-0.53,1.37-0.92c0.39-0.38,0.69-0.84,0.92-1.36c0.23-0.52,0.34-1.08,0.34-1.67v-8.6
					C177.79,15.88,177.15,15.24,176.36,15.24L176.36,15.24z"/>
			</g>
		</g>
	</g>
	<g>
		
			<linearGradient id="SVGID_00000003822627295240115010000016234702120710911651_" gradientUnits="userSpaceOnUse" x1="165.404" y1="35.9781" x2="165.404" y2="37.1811">
			<stop  offset="0" style="stop-color:#0073FF"/>
			<stop  offset="1" style="stop-color:#2E3192"/>
		</linearGradient>
		<path style="fill:url(#SVGID_00000003822627295240115010000016234702120710911651_);" d="M177.26,37.09h-23.72
			c-0.29,0-0.53-0.24-0.53-0.53s0.24-0.53,0.53-0.53h23.72c0.29,0,0.53,0.24,0.53,0.53S177.56,37.09,177.26,37.09z"/>
	</g>
	<g>
		
			<linearGradient id="SVGID_00000109728034219658889560000005903796387589001367_" gradientUnits="userSpaceOnUse" x1="19.596" y1="35.9781" x2="19.596" y2="37.1811">
			<stop  offset="0" style="stop-color:#0073FF"/>
			<stop  offset="1" style="stop-color:#2E3192"/>
		</linearGradient>
		<path style="fill:url(#SVGID_00000109728034219658889560000005903796387589001367_);" d="M31.46,37.09H7.74
			c-0.29,0-0.53-0.24-0.53-0.53s0.24-0.53,0.53-0.53h23.72c0.29,0,0.53,0.24,0.53,0.53S31.75,37.09,31.46,37.09z"/>
	</g>
</g>
</svg>
